<svg xmlns="http://www.w3.org/2000/svg" width="512" height="512" viewBox="0 0 512 512">
    <defs>
<filter id="softShadow" x="-30%" y="-30%" width="160%" height="160%">
  <feDropShadow dx="0" dy="6" stdDeviation="8" flood-color="#000000" flood-opacity="0.18"/>
</filter>
<filter id="shine" x="-20%" y="-20%" width="140%" height="140%">
  <feGaussianBlur stdDeviation="1.2"/>
</filter>
<linearGradient id="goldFrame" x1="0" y1="0" x2="0" y2="1">
  <stop offset="0%" stop-color="#fff6be"/>
  <stop offset="18%" stop-color="#f3cd54"/>
  <stop offset="52%" stop-color="#d89405"/>
  <stop offset="82%" stop-color="#f5d566"/>
  <stop offset="100%" stop-color="#a96900"/>
</linearGradient>
<linearGradient id="goldInner" x1="0" y1="0" x2="1" y2="1">
  <stop offset="0%" stop-color="#fffad4"/>
  <stop offset="100%" stop-color="#d79a12"/>
</linearGradient>

    <radialGradient id="coinCore" cx="35%" cy="25%" r="80%">
      <stop offset="0%" stop-color="#fff27f"/>
      <stop offset="45%" stop-color="#f6c92a"/>
      <stop offset="100%" stop-color="#c78300"/>
    </radialGradient>
    <linearGradient id="coinEdge" x1="0" y1="0" x2="0" y2="1">
      <stop offset="0%" stop-color="#fff5a4"/>
      <stop offset="100%" stop-color="#9f5f00"/>
    </linearGradient>
    </defs>
    
    <g filter="url(#softShadow)">
      <circle cx="256" cy="256" r="186" fill="url(#coinEdge)" stroke="#985f00" stroke-width="6"/>
      <circle cx="256" cy="256" r="162" fill="url(#coinCore)" stroke="#d18b00" stroke-width="6"/>
      <circle cx="256" cy="256" r="138" fill="none" stroke="#ad6a00" stroke-width="6" opacity="0.7"/>
      <path d="M216 140 C248 120, 312 120, 334 150 C345 165, 348 186, 338 200 C323 222, 294 221, 270 226 C238 233, 214 244, 202 267 C187 296, 196 334, 228 352 C258 369, 304 365, 336 336" fill="none" stroke="#b66f00" stroke-width="28" stroke-linecap="round"/>
      <line x1="256" y1="104" x2="256" y2="156" stroke="#b66f00" stroke-width="22" stroke-linecap="round"/>
      <line x1="256" y1="352" x2="256" y2="408" stroke="#b66f00" stroke-width="22" stroke-linecap="round"/>
      <path d="M210 132 C242 112, 306 112, 328 142 C339 157, 342 178, 332 192 C317 214, 288 213, 264 218 C232 225, 208 236, 196 259 C181 288, 190 326, 222 344 C252 361, 298 357, 330 328" fill="none" stroke="#ffd95b" stroke-width="18" stroke-linecap="round"/>
      <line x1="256" y1="96" x2="256" y2="148" stroke="#ffd95b" stroke-width="14" stroke-linecap="round"/>
      <line x1="256" y1="344" x2="256" y2="400" stroke="#ffd95b" stroke-width="14" stroke-linecap="round"/>
      <path d="M138 122 L200 92" stroke="#ffffff" stroke-width="12" stroke-linecap="round" opacity="0.42" filter="url(#shine)"/>
    </g>
    
    </svg>