<svg xmlns="http://www.w3.org/2000/svg" width="512" height="512" viewBox="0 0 512 512">
    <defs>
<filter id="softShadow" x="-30%" y="-30%" width="160%" height="160%">
  <feDropShadow dx="0" dy="6" stdDeviation="8" flood-color="#000000" flood-opacity="0.18"/>
</filter>
<filter id="shine" x="-20%" y="-20%" width="140%" height="140%">
  <feGaussianBlur stdDeviation="1.2"/>
</filter>
<linearGradient id="goldFrame" x1="0" y1="0" x2="0" y2="1">
  <stop offset="0%" stop-color="#fff6be"/>
  <stop offset="18%" stop-color="#f3cd54"/>
  <stop offset="52%" stop-color="#d89405"/>
  <stop offset="82%" stop-color="#f5d566"/>
  <stop offset="100%" stop-color="#a96900"/>
</linearGradient>
<linearGradient id="goldInner" x1="0" y1="0" x2="1" y2="1">
  <stop offset="0%" stop-color="#fffad4"/>
  <stop offset="100%" stop-color="#d79a12"/>
</linearGradient>

    <radialGradient id="sapCore" cx="45%" cy="35%" r="75%">
      <stop offset="0%" stop-color="#58c0ff"/>
      <stop offset="55%" stop-color="#0e57e1"/>
      <stop offset="100%" stop-color="#082172"/>
    </radialGradient>
    </defs>
    
    <g filter="url(#softShadow)">
      <ellipse cx="256" cy="256" rx="150" ry="200" fill="url(#sapCore)" stroke="#0b379f" stroke-width="7"/>
      <path d="M256 90 L318 130 L348 210 L330 302 L286 392 L226 392 L184 302 L164 210 L194 130 Z" fill="#0a33b0" opacity="0.55"/>
      <polygon points="256,90 336,174 256,256 174,174" fill="#4ed0ff" opacity="0.35"/>
      <polygon points="174,174 256,256 188,360 126,256" fill="#1735cf" opacity="0.58"/>
      <polygon points="336,174 256,256 324,360 386,256" fill="#0a2a9f" opacity="0.62"/>
      <polygon points="256,256 188,360 256,422 324,360" fill="#2f7bf8" opacity="0.45"/>
      <path d="M180 148 L230 117" stroke="#ffffff" stroke-width="16" stroke-linecap="round" opacity="0.75" filter="url(#shine)"/>
    </g>
    
    </svg>